<svg width="27" height="27" viewBox="0 0 27 27" fill="none" xmlns="http://www.w3.org/2000/svg">
<path d="M24.1071 0H2.89286C1.29576 0 0 1.29576 0 2.89286V24.1071C0 25.7042 1.29576 27 2.89286 27H24.1071C25.7042 27 27 25.7042 27 24.1071V2.89286C27 1.29576 25.7042 0 24.1071 0ZM14.4643 17.3571H11.5714V20.25C11.5714 20.7804 11.1375 21.2143 10.6071 21.2143H8.67857C8.14821 21.2143 7.71429 20.7804 7.71429 20.25V6.75C7.71429 6.21964 8.14821 5.78571 8.67857 5.78571H14.4643C17.6525 5.78571 20.25 8.38326 20.25 11.5714C20.25 14.7596 17.6525 17.3571 14.4643 17.3571ZM14.4643 9.64286H11.5714V13.5H14.4643C15.525 13.5 16.3929 12.6321 16.3929 11.5714C16.3929 10.5107 15.525 9.64286 14.4643 9.64286Z" fill="black"/>
</svg>
